HIERARCHY
ROOT newVegas:Hips
{
	OFFSET 0.000000 96.479958 0.000000
	CHANNELS 6 Xposition Yposition Zposition Xrotation Yrotation Zrotation
	JOINT newVegas:Pelvis
	{
		OFFSET 0.000000 0.000000 0.000000
		CHANNELS 3 Xrotation Yrotation Zrotation
		JOINT newVegas:LeftUpLeg
		{
			OFFSET 18.735201 -5.666702 -4.541200
			CHANNELS 3 Xrotation Yrotation Zrotation
			JOINT newVegas:LeftLeg
			{
				OFFSET -0.021200 -31.938179 0.493100
				CHANNELS 3 Xrotation Yrotation Zrotation
				JOINT newVegas:LeftFoot
				{
					OFFSET 0.021200 -31.938179 -4.336299
					CHANNELS 3 Xrotation Yrotation Zrotation
					JOINT newVegas:LeftToeBase
					{
						OFFSET 0.943001 -26.722000 15.023500
						CHANNELS 3 Xrotation Yrotation Zrotation
						End Site
						{
							OFFSET 0.000000 30.670183 0.000000
						}
					}
				}
				JOINT newVegas:Left_PantLeg
				{
					OFFSET 0.663870 -9.044666 -1.108900
					CHANNELS 3 Xrotation Yrotation Zrotation
					End Site
					{
						OFFSET 1.415995 20.635357 0.000000
					}
				}
			}
		}
		JOINT newVegas:RightUpLeg
		{
			OFFSET -18.735201 -5.666702 -4.541200
			CHANNELS 3 Xrotation Yrotation Zrotation
			JOINT newVegas:RightLeg
			{
				OFFSET 0.018946 -31.938133 0.493100
				CHANNELS 3 Xrotation Yrotation Zrotation
				JOINT newVegas:RightFoot
				{
					OFFSET -0.018946 -31.938126 -4.336299
					CHANNELS 3 Xrotation Yrotation Zrotation
					JOINT newVegas:RightToeBase
					{
						OFFSET -0.943001 -26.722004 15.023500
						CHANNELS 3 Xrotation Yrotation Zrotation
						End Site
						{
							OFFSET 0.000000 30.670187 0.000000
						}
					}
				}
				JOINT newVegas:Right_PantLeg
				{
					OFFSET -0.661674 -9.044716 -1.108900
					CHANNELS 3 Xrotation Yrotation Zrotation
					End Site
					{
						OFFSET -1.415958 20.635269 0.000000
					}
				}
			}
		}
	}
	JOINT newVegas:Spine
	{
		OFFSET 0.000000 10.199997 -0.299500
		CHANNELS 3 Xrotation Yrotation Zrotation
		JOINT newVegas:Spine1
		{
			OFFSET 0.000000 11.900002 -1.516600
			CHANNELS 3 Xrotation Yrotation Zrotation
			JOINT newVegas:Spine2
			{
				OFFSET 0.000000 13.600006 -2.842500
				CHANNELS 3 Xrotation Yrotation Zrotation
				JOINT newVegas:Neck
				{
					OFFSET 0.000000 9.624100 -2.890100
					CHANNELS 3 Xrotation Yrotation Zrotation
					JOINT newVegas:Head
					{
						OFFSET 0.000000 14.068802 -1.351900
						CHANNELS 3 Xrotation Yrotation Zrotation
						JOINT newVegas:Hair_Back
						{
							OFFSET 0.000000 3.231903 -17.524799
							CHANNELS 3 Xrotation Yrotation Zrotation
							End Site
							{
								OFFSET 0.000000 19.849884 0.000000
							}
						}
						JOINT newVegas:Hair_Front
						{
							OFFSET 0.000000 31.260406 4.573800
							CHANNELS 3 Xrotation Yrotation Zrotation
							JOINT newVegas:Hair_Front1
							{
								OFFSET 0.000000 2.284103 11.993300
								CHANNELS 3 Xrotation Yrotation Zrotation
								JOINT newVegas:Hair_Front2
								{
									OFFSET 0.000000 2.284103 11.993300
									CHANNELS 3 Xrotation Yrotation Zrotation
									End Site
									{
										OFFSET 0.000000 12.208862 0.000000
									}
								}
							}
						}
						JOINT newVegas:Jowel
						{
							OFFSET 0.000000 -7.458206 6.864100
							CHANNELS 3 Xrotation Yrotation Zrotation
							End Site
							{
								OFFSET 0.000000 19.849884 0.000000
							}
						}
					}
				}
				JOINT newVegas:LeftShoulder
				{
					OFFSET 15.263000 10.923401 -0.547700
					CHANNELS 3 Xrotation Yrotation Zrotation
					JOINT newVegas:LeftArm
					{
						OFFSET 25.438599 -2.830597 -13.032500
						CHANNELS 3 Xrotation Yrotation Zrotation
						JOINT newVegas:LeftForeArm
						{
							OFFSET 29.960503 0.000000 0.000000
							CHANNELS 3 Xrotation Yrotation Zrotation
							JOINT newVegas:LeftHand
							{
								OFFSET 27.849251 0.000000 0.000000
								CHANNELS 3 Xrotation Yrotation Zrotation
								JOINT newVegas:LeftHandThumb1
								{
									OFFSET 4.487587 -3.305161 6.305391
									CHANNELS 3 Xrotation Yrotation Zrotation
									JOINT newVegas:LeftHandThumb2
									{
										OFFSET 5.480453 -3.164139 3.164143
										CHANNELS 3 Xrotation Yrotation Zrotation
										JOINT newVegas:LeftHandThumb3
										{
											OFFSET 5.159721 -2.978973 2.978967
											CHANNELS 3 Xrotation Yrotation Zrotation
											End Site
											{
												OFFSET 2.494507 5.926697 1.738678
											}
										}
									}
								}
								JOINT newVegas:LeftHandIndex1
								{
									OFFSET 18.578728 -0.527832 5.208049
									CHANNELS 3 Xrotation Yrotation Zrotation
									JOINT newVegas:LeftHandIndex2
									{
										OFFSET 3.192009 0.000000 0.000000
										CHANNELS 3 Xrotation Yrotation Zrotation
										JOINT newVegas:LeftHandIndex3
										{
											OFFSET 3.835129 0.000000 0.000000
											CHANNELS 3 Xrotation Yrotation Zrotation
											End Site
											{
												OFFSET -0.034599 3.816971 0.371180
											}
										}
									}
								}
								JOINT newVegas:LeftHandMiddle1
								{
									OFFSET 18.476105 0.000000 0.000000
									CHANNELS 3 Xrotation Yrotation Zrotation
									JOINT newVegas:LeftHandMiddle2
									{
										OFFSET 3.324875 0.000000 0.000000
										CHANNELS 3 Xrotation Yrotation Zrotation
										JOINT newVegas:LeftHandMiddle3
										{
											OFFSET 4.596550 0.000000 0.000000
											CHANNELS 3 Xrotation Yrotation Zrotation
											End Site
											{
												OFFSET 0.057701 4.578827 0.399218
											}
										}
									}
								}
								JOINT newVegas:LeftHandRing1
								{
									OFFSET 17.732719 0.121887 -4.201567
									CHANNELS 3 Xrotation Yrotation Zrotation
									JOINT newVegas:LeftHandRing2
									{
										OFFSET 2.733170 0.000000 0.000000
										CHANNELS 3 Xrotation Yrotation Zrotation
										JOINT newVegas:LeftHandRing3
										{
											OFFSET 3.178268 0.000000 0.000000
											CHANNELS 3 Xrotation Yrotation Zrotation
											End Site
											{
												OFFSET 0.119102 3.170624 0.185394
											}
										}
									}
								}
								JOINT newVegas:LeftHandPinky1
								{
									OFFSET 15.989624 -0.606689 -7.535461
									CHANNELS 3 Xrotation Yrotation Zrotation
									JOINT newVegas:LeftHandPinky2
									{
										OFFSET 2.538986 0.000000 0.000000
										CHANNELS 3 Xrotation Yrotation Zrotation
										JOINT newVegas:LeftHandPinky3
										{
											OFFSET 2.593102 0.000000 0.000000
											CHANNELS 3 Xrotation Yrotation Zrotation
											End Site
											{
												OFFSET -0.150902 2.584198 0.152708
											}
										}
									}
								}
							}
							JOINT newVegas:Left_Sleeve
							{
								OFFSET 0.267448 -0.649796 0.577675
								CHANNELS 3 Xrotation Yrotation Zrotation
								End Site
								{
									OFFSET 0.000000 15.991241 0.000000
								}
							}
							JOINT newVegas:Left_CapeC
							{
								OFFSET 15.715958 -8.608795 -6.935905
								CHANNELS 3 Xrotation Yrotation Zrotation
								JOINT newVegas:Left_CapeC1
								{
									OFFSET 0.000000 -8.688499 0.000000
									CHANNELS 3 Xrotation Yrotation Zrotation
									End Site
									{
										OFFSET 0.000000 8.688499 0.000000
									}
								}
							}
						}
						JOINT newVegas:Left_CapeB
						{
							OFFSET 26.118385 -8.608795 -7.079235
							CHANNELS 3 Xrotation Yrotation Zrotation
							JOINT newVegas:Left_CapeB1
							{
								OFFSET 0.000000 -8.688499 0.000000
								CHANNELS 3 Xrotation Yrotation Zrotation
								End Site
								{
									OFFSET 0.000000 8.688499 0.000000
								}
							}
						}
						JOINT newVegas:Left_CapeA
						{
							OFFSET 5.115639 -8.608795 -10.395809
							CHANNELS 3 Xrotation Yrotation Zrotation
							JOINT newVegas:Left_CapeA1
							{
								OFFSET 0.000000 -8.688499 0.000000
								CHANNELS 3 Xrotation Yrotation Zrotation
								End Site
								{
									OFFSET 0.000000 8.688499 0.000000
								}
							}
						}
					}
				}
				JOINT newVegas:RightShoulder
				{
					OFFSET -15.263000 10.923401 -0.547700
					CHANNELS 3 Xrotation Yrotation Zrotation
					JOINT newVegas:RightArm
					{
						OFFSET -25.438599 -2.830597 -13.032500
						CHANNELS 3 Xrotation Yrotation Zrotation
						JOINT newVegas:RightForeArm
						{
							OFFSET -29.960503 0.000000 0.000000
							CHANNELS 3 Xrotation Yrotation Zrotation
							JOINT newVegas:RightHand
							{
								OFFSET -27.849251 0.000000 0.000000
								CHANNELS 3 Xrotation Yrotation Zrotation
								JOINT newVegas:RightHandThumb1
								{
									OFFSET -4.487587 -3.305161 6.305391
									CHANNELS 3 Xrotation Yrotation Zrotation
									JOINT newVegas:RightHandThumb2
									{
										OFFSET -5.480453 -3.164139 3.164143
										CHANNELS 3 Xrotation Yrotation Zrotation
										JOINT newVegas:RightHandThumb3
										{
											OFFSET -5.159721 -2.978973 2.978967
											CHANNELS 3 Xrotation Yrotation Zrotation
											End Site
											{
												OFFSET -2.494507 5.926697 1.738678
											}
										}
									}
								}
								JOINT newVegas:RightHandIndex1
								{
									OFFSET -18.578728 -0.527832 5.208049
									CHANNELS 3 Xrotation Yrotation Zrotation
									JOINT newVegas:RightHandIndex2
									{
										OFFSET -3.192009 0.000000 0.000000
										CHANNELS 3 Xrotation Yrotation Zrotation
										JOINT newVegas:RightHandIndex3
										{
											OFFSET -3.835129 0.000000 0.000000
											CHANNELS 3 Xrotation Yrotation Zrotation
											End Site
											{
												OFFSET 0.034599 3.816971 0.371180
											}
										}
									}
								}
								JOINT newVegas:RightHandMiddle1
								{
									OFFSET -18.476105 0.000000 0.000000
									CHANNELS 3 Xrotation Yrotation Zrotation
									JOINT newVegas:RightHandMiddle2
									{
										OFFSET -3.324875 0.000000 0.000000
										CHANNELS 3 Xrotation Yrotation Zrotation
										JOINT newVegas:RightHandMiddle3
										{
											OFFSET -4.596550 0.000000 0.000000
											CHANNELS 3 Xrotation Yrotation Zrotation
											End Site
											{
												OFFSET -0.057701 4.578827 0.399218
											}
										}
									}
								}
								JOINT newVegas:RightHandRing1
								{
									OFFSET -17.732719 0.121887 -4.201567
									CHANNELS 3 Xrotation Yrotation Zrotation
									JOINT newVegas:RightHandRing2
									{
										OFFSET -2.733170 0.000000 0.000000
										CHANNELS 3 Xrotation Yrotation Zrotation
										JOINT newVegas:RightHandRing3
										{
											OFFSET -3.178268 0.000000 0.000000
											CHANNELS 3 Xrotation Yrotation Zrotation
											End Site
											{
												OFFSET -0.119102 3.170624 0.185394
											}
										}
									}
								}
								JOINT newVegas:RightHandPinky1
								{
									OFFSET -15.989624 -0.606689 -7.535461
									CHANNELS 3 Xrotation Yrotation Zrotation
									JOINT newVegas:RightHandPinky2
									{
										OFFSET -2.538986 0.000000 0.000000
										CHANNELS 3 Xrotation Yrotation Zrotation
										JOINT newVegas:RightHandPinky3
										{
											OFFSET -2.593102 0.000000 0.000000
											CHANNELS 3 Xrotation Yrotation Zrotation
											End Site
											{
												OFFSET 0.150902 2.584198 0.152708
											}
										}
									}
								}
							}
							JOINT newVegas:Right_CapeC
							{
								OFFSET -15.715958 -8.608795 -6.935905
								CHANNELS 3 Xrotation Yrotation Zrotation
								JOINT newVegas:Right_CapeC1
								{
									OFFSET 0.000000 -8.688499 0.000000
									CHANNELS 3 Xrotation Yrotation Zrotation
									End Site
									{
										OFFSET 0.000000 8.688499 0.000000
									}
								}
							}
							JOINT newVegas:Right_Sleeve
							{
								OFFSET -0.267448 -0.649994 0.577675
								CHANNELS 3 Xrotation Yrotation Zrotation
								End Site
								{
									OFFSET 0.000000 15.991302 0.000000
								}
							}
						}
						JOINT newVegas:Right_CapeA
						{
							OFFSET -5.115540 -8.608795 -10.395824
							CHANNELS 3 Xrotation Yrotation Zrotation
							JOINT newVegas:Right_CapeA1
							{
								OFFSET 0.000000 -8.688499 0.000000
								CHANNELS 3 Xrotation Yrotation Zrotation
								End Site
								{
									OFFSET 0.000000 8.688499 0.000000
								}
							}
						}
						JOINT newVegas:Right_CapeB
						{
							OFFSET -26.118187 -8.608795 -7.079266
							CHANNELS 3 Xrotation Yrotation Zrotation
							JOINT newVegas:Right_CapeB1
							{
								OFFSET 0.000000 -8.688499 0.000000
								CHANNELS 3 Xrotation Yrotation Zrotation
								End Site
								{
									OFFSET 0.000000 8.688499 0.000000
								}
							}
						}
					}
				}
				JOINT newVegas:Left_Collar
				{
					OFFSET 18.625099 8.655502 8.828100
					CHANNELS 3 Xrotation Yrotation Zrotation
					JOINT newVegas:Left_Collar1
					{
						OFFSET 14.783401 10.540405 -1.259500
						CHANNELS 3 Xrotation Yrotation Zrotation
						End Site
						{
							OFFSET 0.000000 18.199875 0.000000
						}
					}
				}
				JOINT newVegas:Collar_Back
				{
					OFFSET 0.000000 15.630707 -20.132601
					CHANNELS 3 Xrotation Yrotation Zrotation
					End Site
					{
						OFFSET 0.000000 22.523010 0.000000
					}
				}
				JOINT newVegas:Left_Peck
				{
					OFFSET 17.239599 -5.132599 25.482599
					CHANNELS 3 Xrotation Yrotation Zrotation
					End Site
					{
						OFFSET 0.000000 22.523010 0.000000
					}
				}
				JOINT newVegas:Right_Peck
				{
					OFFSET -17.239599 -5.132202 25.482599
					CHANNELS 3 Xrotation Yrotation Zrotation
					End Site
					{
						OFFSET 0.000000 22.523010 0.000000
					}
				}
				JOINT newVegas:Right_Collar
				{
					OFFSET -18.625099 8.655792 8.828100
					CHANNELS 3 Xrotation Yrotation Zrotation
					JOINT newVegas:Right_Collar1
					{
						OFFSET -14.783401 10.539993 -1.259500
						CHANNELS 3 Xrotation Yrotation Zrotation
						End Site
						{
							OFFSET 0.000000 18.199631 0.000000
						}
					}
				}
			}
		}
		JOINT newVegas:Belly
		{
			OFFSET 0.000000 -6.540398 9.014299
			CHANNELS 3 Xrotation Yrotation Zrotation
			End Site
			{
				OFFSET 0.000000 11.566666 0.000000
			}
		}
	}
	JOINT newVegas:ElvisFacialAnim_Joint
	{
		OFFSET 1.000000 -95.330101 -8.825800
		CHANNELS 3 Xrotation Yrotation Zrotation
		End Site
		{
			OFFSET 0.000000 35.315800 0.000000
		}
	}
}
MOTION
Frames: 4
Frame Time: 0.033333
6.028301 87.077156 -6.777218 22.248103 -9.102856 -4.521122 0.000001 -0.000000 -0.000000 -66.630620 7.374836 15.669369 52.711510 6.966542 1.550229 -9.268254 14.536275 -1.962121 0.000000 -0.000001 0.000000 -0.000000 -0.000000 -0.000000 -51.896300 -12.841943 -0.524982 30.728799 3.200914 -2.799437 -1.262714 13.344789 4.614715 0.000000 -0.000000 -0.000000 0.000000 0.000000 -0.000000 31.304649 -0.262455 3.453820 7.283114 -0.147047 2.286908 7.256053 -0.162526 2.326480 0.400206 0.217092 -0.074711 0.400216 0.217091 -0.074712 0.000000 -0.000000 0.000000 0.400300 0.217065 -0.074702 0.400243 0.217103 -0.074711 0.000002 -0.000000 0.000001 0.000000 -0.000000 0.000001 1.193495 -25.893976 -6.711531 -44.397746 -40.609586 -44.196651 0.000006 -17.370233 0.000007 16.403601 -14.339031 8.244051 -1.075852 -3.506696 -15.061865 12.886399 17.543092 15.516745 -0.000000 0.000000 -0.000008 0.034488 -0.944465 -7.769019 0.239893 1.660884 -16.436480 0.000000 -0.000000 -0.000000 0.015521 3.017892 -16.066721 0.189301 1.478741 -14.590262 -0.000000 -0.000001 -0.000000 0.528597 4.667750 -20.028427 0.415385 2.168485 -21.684857 -0.000002 0.000003 0.000003 1.531217 6.718084 -25.560607 0.264359 1.741617 -17.260564 -0.000001 -0.000005 0.000001 0.000001 -0.000002 -0.000001 0.000001 -0.000002 -0.000001 0.000000 -0.000002 -0.000001 -0.000001 0.000001 0.000001 -0.000001 0.000001 0.000001 -0.000001 0.000001 0.000001 -0.000001 -0.000000 0.000001 -0.059034 21.061590 13.785078 -38.544079 30.349785 51.897089 0.000020 71.406718 -0.000013 40.678284 -5.116486 -28.183640 -1.673835 -0.169592 -4.212630 12.708641 -29.887361 -16.178124 0.000000 -0.000005 0.000000 -0.260070 0.354334 6.767877 0.213766 -1.396157 17.408581 0.000000 -0.000001 -0.000000 -0.021398 -2.833237 18.505040 0.125615 -1.075477 13.323390 0.000001 -0.000001 0.000001 -0.331780 -2.305336 22.687882 0.275082 -1.578403 19.770688 0.000001 -0.000003 0.000002 -0.078497 -3.286100 27.737222 0.200074 -1.351748 16.837957 0.000001 0.000002 -0.000003 -0.000000 -0.000001 -0.000002 -0.000000 -0.000001 -0.000001 -0.000000 -0.000001 -0.000000 0.000001 0.000001 0.000000 0.000001 0.000001 0.000001 0.000001 0.000001 0.000000 0.000001 0.000001 0.000001 0.000002 0.000000 0.000000 0.000002 0.000000 0.000000 0.000002 0.000000 0.000000 0.000002 0.000000 0.000000 0.000002 0.000000 0.000000 0.000002 0.000000 0.000000 0.000002 0.000000 0.000000 -0.000000 -0.000001 -0.000000 0.000001 -0.000000 -0.000000 
6.250788 87.681465 -6.283489 21.365441 -9.052073 -5.033535 -0.000000 0.000001 -0.000000 -64.698455 7.361461 15.809275 51.737535 7.092651 1.297993 -9.453064 14.295310 -1.805607 0.000000 0.000002 -0.000000 0.000000 -0.000002 0.000001 -48.850995 -13.102909 -0.138122 27.795388 3.305638 -2.742513 -0.504178 13.429578 4.933930 -0.000000 -0.000000 -0.000000 0.000000 -0.000001 -0.000000 30.861923 0.103750 2.612264 7.187424 0.005544 2.156938 7.162183 -0.016146 2.184561 0.491511 0.209539 -0.107613 0.491499 0.209544 -0.107612 0.000001 0.000000 0.000001 0.491613 0.209544 -0.107616 0.491428 0.209530 -0.107612 -0.000002 -0.000000 -0.000001 0.000001 0.000000 0.000001 0.985256 -24.885972 -7.711868 -41.094485 -39.909024 -43.733561 0.000001 -17.810774 0.000002 15.756528 -16.390842 7.569798 -1.272843 -2.330488 -10.602903 12.668492 19.326095 15.820704 0.000002 0.000000 0.000001 0.034498 -0.951389 -7.697732 0.245943 1.681236 -16.643764 0.000000 0.000000 0.000000 -0.006319 2.931392 -15.915637 0.205946 1.541165 -15.221322 -0.000001 -0.000003 -0.000000 0.443806 4.435291 -20.273511 0.403897 2.139360 -21.378928 -0.000001 0.000003 0.000002 1.412160 6.447251 -25.912676 0.265204 1.744359 -17.288566 -0.000000 0.000000 -0.000001 -0.000001 0.000000 0.000000 -0.000001 0.000000 0.000000 -0.000002 0.000001 0.000001 0.000003 0.000000 -0.000000 0.000003 0.000000 -0.000000 0.000003 0.000000 -0.000000 0.000003 0.000000 -0.000000 -0.123152 20.855962 14.247868 -38.232141 29.881531 51.461292 -0.000065 72.020090 0.000079 40.504716 -5.785836 -30.183371 -1.664287 -0.163638 -4.214633 12.716832 -29.822590 -16.164577 0.000002 0.000003 0.000001 -0.242697 0.224776 6.758537 0.213871 -1.396521 17.413238 -0.000003 0.000002 -0.000001 0.001198 -2.927120 19.032983 0.114355 -1.026773 12.709626 0.000001 -0.000001 0.000001 -0.391954 -2.192064 23.024221 0.270237 -1.564883 19.594489 0.000002 0.000001 0.000003 -0.207849 -3.048401 27.932135 0.197962 -1.344691 16.747760 0.000001 -0.000002 0.000001 0.000000 0.000001 0.000001 0.000001 -0.000000 -0.000001 0.000000 0.000000 -0.000000 -0.000002 -0.000001 -0.000000 -0.000002 -0.000002 0.000000 -0.000002 -0.000001 -0.000000 -0.000002 -0.000002 0.000000 -0.000000 -0.000000 -0.000000 -0.000000 -0.000000 -0.000000 -0.000000 -0.000000 -0.000000 -0.000000 -0.000000 -0.000000 -0.000000 -0.000000 -0.000000 -0.000000 -0.000000 -0.000000 -0.000000 -0.000000 -0.000000 0.000004 0.000000 -0.000000 -0.000000 0.000001 -0.000000 
6.441704 88.281387 -5.772133 20.501904 -8.928270 -5.581936 -0.000002 0.000000 -0.000000 -62.794232 7.329777 15.971513 50.734208 7.347273 1.089504 -9.583843 13.869232 -1.723483 -0.000000 -0.000001 0.000000 -0.000000 0.000000 0.000000 -45.653917 -13.282416 0.347876 24.621469 3.351169 -2.670773 0.341935 13.425693 5.250960 -0.000000 0.000000 -0.000000 -0.000000 0.000001 -0.000000 30.469938 0.463698 1.861416 7.100918 0.154123 2.020634 7.077225 0.129064 2.036099 0.589782 0.197716 -0.126826 0.589782 0.197714 -0.126821 -0.000002 -0.000001 -0.000000 0.589822 0.197711 -0.126823 0.589787 0.197728 -0.126826 0.000001 0.000001 0.000000 -0.000002 -0.000001 -0.000000 0.838186 -23.769591 -8.479475 -37.633745 -38.877898 -43.418444 -0.000007 -18.021097 -0.000007 16.221339 -17.671275 8.309012 -1.289602 -1.158495 -6.290572 12.451668 21.037751 16.136095 0.000000 -0.000004 0.000004 0.033134 -0.955410 -7.652971 0.252047 1.701489 -16.850307 0.000000 -0.000001 -0.000000 -0.026497 2.852962 -15.816797 0.222817 1.601798 -15.835833 -0.000001 0.000000 -0.000000 0.360561 4.212954 -20.515110 0.396111 2.119440 -21.170188 -0.000002 0.000003 0.000001 1.294328 6.188763 -26.256104 0.266197 1.747505 -17.320653 0.000001 -0.000002 -0.000002 -0.000000 -0.000001 -0.000000 -0.000000 -0.000001 -0.000000 -0.000001 -0.000001 0.000000 0.000001 -0.000001 -0.000000 0.000000 -0.000001 -0.000000 0.000001 -0.000001 -0.000000 0.000001 -0.000001 -0.000000 -0.195619 20.734112 14.751566 -38.104997 29.597679 50.957593 0.000028 71.991594 -0.000036 40.194728 -6.214969 -32.507766 -1.670382 -0.159717 -4.207616 12.715922 -29.821453 -16.163013 0.000001 -0.000002 -0.000001 -0.225825 0.099400 6.748293 0.213922 -1.396649 17.415000 -0.000000 0.000000 0.000002 0.024322 -3.017540 19.542894 0.103900 -0.979296 12.112555 0.000001 0.000003 -0.000003 -0.451623 -2.082869 23.347928 0.265587 -1.551719 19.422939 -0.000001 -0.000002 -0.000004 -0.335612 -2.819346 28.118931 0.195904 -1.337882 16.660051 0.000000 0.000002 -0.000001 -0.000000 0.000000 0.000001 -0.000000 0.000000 0.000002 -0.000000 0.000000 0.000003 0.000001 0.000001 0.000001 0.000001 0.000002 0.000000 0.000001 0.000001 0.000001 0.000001 0.000002 0.000001 -0.000001 0.000000 0.000001 -0.000001 0.000000 0.000001 -0.000001 0.000000 0.000001 -0.000001 0.000000 0.000001 -0.000001 0.000000 0.000001 -0.000001 0.000000 0.000001 -0.000001 0.000000 0.000001 0.000003 -0.000001 -0.000000 -0.000002 0.000000 -0.000000 
6.601687 88.826492 -5.246429 19.741313 -8.810384 -6.042072 0.000001 0.000001 0.000000 -60.991554 7.293353 16.140365 49.797782 7.698149 0.834014 -9.735371 13.385123 -1.685837 0.000000 0.000002 0.000000 0.000000 -0.000003 0.000001 -42.633935 -13.455952 0.784907 21.535236 3.239094 -2.592825 1.172283 13.640961 5.526318 -0.000000 0.000000 0.000000 -0.000000 -0.000001 -0.000001 29.975279 0.867008 1.064840 6.997400 0.317570 1.864024 6.974962 0.290185 1.866034 0.711965 0.184623 -0.140028 0.711948 0.184632 -0.140033 0.000001 -0.000000 -0.000000 0.712006 0.184617 -0.140029 0.711977 0.184647 -0.140034 0.000001 0.000000 -0.000000 0.000001 -0.000000 -0.000000 0.732391 -22.682239 -9.100329 -34.247740 -37.682085 -43.269563 -0.000005 -17.408494 -0.000006 17.769881 -18.206882 9.621530 -1.173767 -0.048256 -2.372035 12.250306 22.582842 16.441319 -0.000000 -0.000002 -0.000005 0.030749 -0.957956 -7.622997 0.257565 1.719514 -17.034548 0.000000 0.000000 -0.000000 -0.044362 2.784613 -15.753635 0.238503 1.656246 -16.389208 -0.000000 -0.000001 -0.000000 0.283545 4.012118 -20.731774 0.391142 2.106529 -21.035060 -0.000002 0.000001 0.000003 1.184481 5.956162 -26.565056 0.267020 1.750183 -17.348120 0.000000 -0.000002 -0.000000 0.000001 0.000000 -0.000001 0.000001 0.000000 -0.000001 -0.000000 0.000000 -0.000001 -0.000005 -0.000001 0.000001 -0.000005 -0.000001 0.000001 -0.000005 -0.000001 0.000001 -0.000006 -0.000001 0.000001 -0.277238 20.684222 15.298227 -38.032160 29.553395 50.486129 0.000001 70.608037 -0.000008 39.696189 -6.085327 -35.620523 -1.654228 -0.208583 -4.232469 12.712474 -29.839894 -16.164647 0.000001 0.000000 0.000003 -0.209312 -0.021646 6.733819 0.213561 -1.395516 17.400494 0.000001 0.000001 0.000001 0.047839 -3.104496 20.033286 0.094011 -0.932018 11.519151 -0.000001 -0.000001 0.000003 -0.510704 -1.976970 23.653608 0.261019 -1.538720 19.253434 0.000003 0.000000 0.000004 -0.461887 -2.597808 28.289281 0.193930 -1.331261 16.575141 0.000003 0.000001 0.000002 -0.000000 -0.000003 -0.000000 -0.000000 -0.000005 -0.000003 -0.000000 -0.000003 -0.000000 -0.000002 -0.000001 -0.000001 -0.000002 -0.000001 -0.000001 -0.000002 -0.000001 -0.000001 -0.000002 -0.000001 -0.000001 0.000001 0.000000 -0.000000 0.000001 0.000000 -0.000000 0.000001 0.000000 -0.000000 0.000001 0.000000 -0.000000 0.000001 0.000000 -0.000000 0.000001 0.000000 -0.000000 0.000001 0.000000 -0.000000 0.000001 0.000000 -0.000000 0.000001 0.000001 0.000000 
